<?xml version="1.0" encoding="UTF-8" standalone="no"?>
<!DOCTYPE svg PUBLIC "-//W3C//DTD SVG 1.1//EN"
 "http://www.w3.org/Graphics/SVG/1.1/DTD/svg11.dtd">
<!-- Generated by graphviz version 2.50.0 (20211204.2007)
 -->
<!-- Pages: 1 -->
<svg width="123pt" height="395pt"
 viewBox="0.00 0.00 123.29 395.50" xmlns="http://www.w3.org/2000/svg" xmlns:xlink="http://www.w3.org/1999/xlink">
<g id="graph0" class="graph" transform="scale(1 1) rotate(0) translate(4 391.5)">
<polygon fill="white" stroke="transparent" points="-4,4 -4,-391.5 119.29,-391.5 119.29,4 -4,4"/>
<!-- fake -->
<g id="node1" class="node">
<title>fake</title>
</g>
<!-- AG -->
<g id="node3" class="node">
<title>AG</title>
<ellipse fill="none" stroke="black" cx="41.29" cy="-296.5" rx="27" ry="18"/>
<text text-anchor="middle" x="41.29" y="-292.8" font-family="Times New Roman,serif" font-size="14.00">AG</text>
</g>
<!-- fake&#45;&gt;AG -->
<g id="edge1" class="edge">
<title>fake&#45;&gt;AG</title>
<path fill="none" stroke="black" stroke-width="2" d="M41.29,-351.31C41.29,-343.29 41.29,-333.54 41.29,-324.57"/>
<polygon fill="black" stroke="black" stroke-width="2" points="44.79,-324.52 41.29,-314.52 37.79,-324.52 44.79,-324.52"/>
</g>
<!-- DF -->
<g id="node2" class="node">
<title>DF</title>
<ellipse fill="none" stroke="black" cx="36.29" cy="-26.75" rx="22.96" ry="22.96"/>
<ellipse fill="none" stroke="black" cx="36.29" cy="-26.75" rx="27" ry="27"/>
<text text-anchor="middle" x="36.29" y="-23.05" font-family="Times New Roman,serif" font-size="14.00">DF</text>
</g>
<!-- DF&#45;&gt;DF -->
<g id="edge5" class="edge">
<title>DF&#45;&gt;DF</title>
<path fill="none" stroke="black" d="M61.6,-36.41C72.12,-37.08 81.04,-33.86 81.04,-26.75 81.04,-22.08 77.2,-19.09 71.58,-17.77"/>
<polygon fill="black" stroke="black" points="71.81,-14.28 61.6,-17.08 71.33,-21.27 71.81,-14.28"/>
<text text-anchor="middle" x="84.54" y="-23.05" font-family="Times New Roman,serif" font-size="14.00">1</text>
</g>
<!-- DF&#45;&gt;AG -->
<g id="edge8" class="edge">
<title>DF&#45;&gt;AG</title>
<path fill="none" stroke="black" d="M26.51,-51.7C12.43,-89.47 -10.23,-165 5.29,-227.5 9.16,-243.04 17.3,-258.94 24.86,-271.45"/>
<polygon fill="black" stroke="black" points="21.9,-273.32 30.2,-279.91 27.82,-269.59 21.9,-273.32"/>
<text text-anchor="middle" x="4.79" y="-162.3" font-family="Times New Roman,serif" font-size="14.00">0</text>
</g>
<!-- AG&#45;&gt;AG -->
<g id="edge7" class="edge">
<title>AG&#45;&gt;AG</title>
<path fill="none" stroke="black" d="M66.74,-303.19C77.32,-303.65 86.29,-301.42 86.29,-296.5 86.29,-293.27 82.43,-291.2 76.78,-290.28"/>
<polygon fill="black" stroke="black" points="76.89,-286.79 66.74,-289.81 76.56,-293.78 76.89,-286.79"/>
<text text-anchor="middle" x="89.79" y="-292.8" font-family="Times New Roman,serif" font-size="14.00">0</text>
</g>
<!-- C -->
<g id="node4" class="node">
<title>C</title>
<ellipse fill="none" stroke="black" cx="41.29" cy="-209.5" rx="27" ry="18"/>
<text text-anchor="middle" x="41.29" y="-205.8" font-family="Times New Roman,serif" font-size="14.00">C</text>
</g>
<!-- AG&#45;&gt;C -->
<g id="edge4" class="edge">
<title>AG&#45;&gt;C</title>
<path fill="none" stroke="black" d="M41.29,-278.29C41.29,-266.66 41.29,-251.04 41.29,-237.73"/>
<polygon fill="black" stroke="black" points="44.79,-237.67 41.29,-227.67 37.79,-237.67 44.79,-237.67"/>
<text text-anchor="middle" x="44.79" y="-249.3" font-family="Times New Roman,serif" font-size="14.00">1</text>
</g>
<!-- C&#45;&gt;DF -->
<g id="edge6" class="edge">
<title>C&#45;&gt;DF</title>
<path fill="none" stroke="black" d="M40.82,-191.49C40.02,-162.49 38.37,-102.86 37.3,-64.12"/>
<polygon fill="black" stroke="black" points="40.79,-63.7 37.02,-53.8 33.79,-63.89 40.79,-63.7"/>
<text text-anchor="middle" x="42.79" y="-118.8" font-family="Times New Roman,serif" font-size="14.00">0</text>
</g>
<!-- E -->
<g id="node5" class="node">
<title>E</title>
<ellipse fill="none" stroke="black" cx="88.29" cy="-122.5" rx="27" ry="18"/>
<text text-anchor="middle" x="88.29" y="-118.8" font-family="Times New Roman,serif" font-size="14.00">E</text>
</g>
<!-- C&#45;&gt;E -->
<g id="edge2" class="edge">
<title>C&#45;&gt;E</title>
<path fill="none" stroke="black" d="M50.36,-192.11C57.16,-179.8 66.61,-162.72 74.37,-148.68"/>
<polygon fill="black" stroke="black" points="77.64,-149.99 79.42,-139.55 71.52,-146.6 77.64,-149.99"/>
<text text-anchor="middle" x="70.79" y="-162.3" font-family="Times New Roman,serif" font-size="14.00">1</text>
</g>
<!-- E&#45;&gt;DF -->
<g id="edge3" class="edge">
<title>E&#45;&gt;DF</title>
<path fill="none" stroke="black" d="M79.24,-105.17C72.3,-92.65 62.5,-75 54.02,-59.71"/>
<polygon fill="black" stroke="black" points="56.86,-57.61 48.95,-50.56 50.74,-61 56.86,-57.61"/>
<text text-anchor="middle" x="71.79" y="-75.3" font-family="Times New Roman,serif" font-size="14.00">1</text>
</g>
<!-- E&#45;&gt;AG -->
<g id="edge9" class="edge">
<title>E&#45;&gt;AG</title>
<path fill="none" stroke="black" d="M88.45,-140.83C88.2,-161.8 86.3,-197.97 77.29,-227.5 72.67,-242.67 64.59,-258.39 57.25,-270.89"/>
<polygon fill="black" stroke="black" points="54.06,-269.4 51.86,-279.77 60.05,-273.04 54.06,-269.4"/>
<text text-anchor="middle" x="87.79" y="-205.8" font-family="Times New Roman,serif" font-size="14.00">0</text>
</g>
</g>
</svg>
